<svg width="112" height="116" viewBox="0 0 112 116" fill="none" xmlns="http://www.w3.org/2000/svg">
<path d="M57.0152 4.02035C85.7093 2.93377 109.846 25.3255 110.911 54.0202C111.976 82.7151 89.5671 106.835 60.8715 107.879C32.2059 108.923 8.11644 86.5416 7.05209 57.8766C5.98775 29.2117 28.3511 5.1058 57.0152 4.02035Z" fill="#8E9AA3"/>
<path d="M31.2543 16.6172C34.7582 18.6898 37.9346 21.0823 41.324 23.3425L60.5176 36.1273C62.7817 37.6601 71.4718 44.0082 73.4303 44.3875C75.3942 44.7678 80.3959 44.5046 82.6427 44.506C90.4326 44.5103 98.2317 44.4168 106.02 44.5298C106.056 44.8627 106.093 45.3196 106.165 45.635C107.521 51.5375 107.726 57.8335 106.654 63.7971C106.452 64.9177 106.27 66.0701 106.086 67.2042C105.053 67.2609 103.782 67.2475 102.729 67.2726C101.191 67.4878 99.5271 67.2054 98.0746 67.362C92.4443 67.9694 86.93 67.9955 81.2988 67.3721C79.3669 67.1582 76.6096 67.6408 74.6998 67.3686C74.0992 67.3465 73.2232 67.6136 72.7278 67.9374C60.4308 75.9737 48.2201 84.1613 35.8532 92.0919C34.5487 92.9286 32.1592 94.7665 30.8702 95.2697C29.6035 94.5253 28.5114 93.5401 27.4054 92.5792C22.7198 88.5087 19.4517 84.3813 16.4537 78.9788C17.9087 77.3754 21.3734 75.5157 23.2544 74.2225C24.7187 73.2156 26.231 72.101 27.6852 71.105L38.4609 63.8759L44.0232 60.2285C45.6736 59.1497 50.8137 56.595 47.8084 54.5295C44.6659 52.3697 41.468 50.1721 38.2848 48.0641C33.1175 44.6103 27.9738 41.1211 22.8543 37.597C20.8475 36.2139 17.9737 34.6461 16.4258 32.9749C17.4174 31.3566 18.5903 29.1906 19.7308 27.6962C22.2546 24.389 27.5091 18.3022 31.2543 16.6172Z" fill="#FAFBFD"/>
<path d="M75.2693 70.7954C77.3923 70.6743 80.3018 70.7651 82.4849 70.7654L97.9203 70.7698C100.125 70.7711 102.925 70.8723 105.052 70.7949C103.314 75.999 100.755 80.8914 97.4711 85.2864C91.0147 93.7838 81.2333 100.201 70.9117 102.896C68.7249 103.468 66.1376 103.807 63.9013 104.107C61.6277 104.382 59.0376 104.358 56.75 104.275C47.9743 103.959 41.8835 101.667 34.2402 97.6211C43.0659 91.4788 52.4535 85.6263 61.4538 79.7007L71.1168 73.3036C72.1848 72.6097 74.1721 71.1035 75.2693 70.7954Z" fill="#FAFBFD"/>
<path d="M55.4214 7.81125C56.4424 7.67586 58.1818 7.77557 59.2441 7.75014C65.229 7.60688 70.6754 8.77091 76.3219 10.7607C81.173 12.4702 85.9638 15.6588 90.0174 18.8308C91.4339 19.9992 92.6878 21.4929 94.0055 22.7348C97.3228 25.8608 99.5021 29.553 101.783 33.4454C103.203 35.8693 103.858 38.2954 105.012 40.7677C98.2781 40.9105 91.1458 40.7941 84.3819 40.7945C81.6539 40.7866 76.2327 41.0256 73.7518 40.5261C72.4986 40.2736 68.2473 37.0351 66.9764 36.1845L51.9846 26.111L40.0074 18.0906C38.1306 16.8302 36.354 15.8006 34.5352 14.4267C39.3224 10.5573 49.2647 8.28717 55.4214 7.81125Z" fill="#FAFBFD"/>
<path d="M14.6739 36.4688C17.8974 38.5792 21.1085 40.7089 24.3068 42.8575C25.4245 43.6233 26.5164 44.4615 27.6328 45.2098L37.4413 51.7939C38.9475 52.8094 40.5237 53.7132 41.9374 54.8595C42.4673 55.2891 43.0052 55.7084 43.5511 56.1179C39.0157 59.3009 34.0628 62.3421 29.6823 65.5075C28.6578 66.2838 27.115 67.1926 25.9954 67.9629C22.2904 70.5118 18.5576 73.0202 14.798 75.4878C10.2382 65.5248 9.29094 54.2847 12.119 43.6991C12.6033 41.8508 13.1976 40.032 13.9785 38.2873C14.2183 37.7516 14.4906 37.1313 14.6466 36.5698L14.6739 36.4688Z" fill="#FAFBFD"/>
</svg>
