<svg width="140" height="127" viewBox="0 0 140 127" fill="none" xmlns="http://www.w3.org/2000/svg">
<path d="M101.565 24.2756C102.035 24.3961 102.285 24.4374 102.584 24.8171C102.699 25.1077 102.724 25.5441 102.548 25.7925C101.044 27.9076 99.9267 29.6242 98.967 32.0978C97.2543 36.512 97.4819 41.8842 99.3755 46.1959C102.007 52.1887 108.49 56.521 114.94 57.0501C115.525 57.2415 118.825 56.812 119.124 57.0777C121.044 58.7874 117.306 59.3734 117.028 59.4678C111.606 61.3051 107.126 65.2158 104.563 70.3481C101.441 76.7006 102.159 84.9374 106.017 90.5769C106.575 91.3919 107.75 92.8781 107.257 93.8379C106.911 94.0566 106.74 94.2398 106.334 94.0204C101.575 91.445 97.8247 89.7241 92.2438 89.3383C86.3231 88.9289 80.5459 90.8659 76.3783 95.2636C75.0487 96.6668 73.9963 97.9484 73.202 99.7349C72.5781 101.016 72.3468 103.121 71.4548 104.148C71.3076 104.314 70.9894 104.319 70.7937 104.271C69.8374 104.036 69.6477 102.386 69.2543 101.617C68.7063 100.506 68.1213 99.4763 67.4193 98.4433C62.5449 91.2705 53.3908 87.7476 45.0519 90.3143C42.7869 91.0114 41.4529 91.4413 39.5173 92.795C38.1656 93.6233 36.3989 95.3803 35.1993 95.4748C33.8765 95.0061 34.9879 93.443 35.3066 92.6558C38.6836 84.3184 34.2842 74.1092 26.7346 69.7269C25.871 69.2142 24.9428 68.8196 23.9746 68.5535C23.1103 68.3129 20.0575 67.9791 20.5805 66.6472C21.0721 65.3956 22.891 66.087 23.941 66.1492C26.3946 66.2925 28.8507 65.9066 31.1436 65.0176C40.9811 61.1042 44.9991 50.8754 40.8081 41.21C40.2707 39.9707 38.2126 37.7118 38.729 36.5586C39.0393 36.221 39.1596 36.216 39.601 36.1066C40.4251 36.4242 41.5663 38.3694 42.2732 39.0903C46.9347 43.9573 55.5148 43.2339 60.0075 38.6621C64.5175 34.0728 66.1663 27.98 65.6639 21.7582C65.6039 21.0146 66.1928 20.3924 66.987 20.4714C67.3766 20.7334 68.8383 23.5351 69.2035 24.084C76.6509 35.2794 87.4828 35.6721 97.6791 27.9077C98.927 26.9574 100.486 24.98 101.565 24.2756ZM43.6571 42.7933C45.6154 51.4626 43.8889 59.2414 36.2672 64.6569C33.5818 66.5648 31.0909 67.1989 28.0254 68.194C32.9085 71.1019 36.4406 75.8339 37.8471 81.3521C38.5899 84.1585 38.8397 88.5169 37.8335 91.2781C39.1603 90.5393 40.676 89.6678 42.07 89.1002C46.8197 87.218 52.0527 86.9493 56.9667 88.3352C62.5827 89.9383 67.6543 94.3729 70.479 99.4623C70.5984 99.6763 70.71 99.8946 70.8134 100.117C71.65 97.9085 72.2582 97.0094 73.7163 95.1361C77.4107 90.539 82.6077 87.9494 88.4161 87.3154C92.9554 86.8199 99.405 88.0022 103.37 90.2809C102.831 89.0806 102.167 87.8509 101.763 86.6049C98.0674 75.2218 102.792 64.4213 113.257 58.8004C111.074 58.3582 109.257 57.9026 107.265 56.9421C98.669 52.7984 94.1828 43.5791 96.2804 34.2384C96.5452 33.0593 96.8099 31.8596 97.2966 30.7457C93.0345 33.6438 86.2144 36.1328 81.097 35.0942C76.9525 34.2531 72.6306 31.4707 69.8495 28.2977C69.552 27.9584 67.9034 25.8751 67.7305 25.7705C66.9949 30.6868 66.2418 34.4868 62.9662 38.4898C62.0543 39.6043 61.2401 40.5247 60.0734 41.3906C56.6933 43.8801 52.4643 44.9175 48.322 44.273C46.9232 44.053 45.0072 43.3312 43.6571 42.7933Z" fill="#8B8B8B"/>
<path d="M71.9326 56.9303C79.0155 57.7779 78.6689 70.1349 75.2709 74.4184C74.0171 75.9987 72.8962 76.3052 71.0468 76.4972C64.3411 75.7836 64.2651 62.1305 67.8185 58.3689C68.9496 57.1715 70.43 56.9739 71.9326 56.9303ZM71.3476 74.5219C75.6714 73.5664 75.8694 66.2493 75.1558 62.8007C74.7858 61.0127 73.5586 58.8865 71.5224 58.8715C68.5078 59.3885 68.0554 61.6444 67.6552 64.245C67.1792 67.338 67.5506 73.6476 71.3476 74.5219Z" fill="#8B8B8B"/>
<path d="M60.876 57.0674C61.0386 57.1028 61.2394 57.1324 61.3898 57.2031C61.6795 57.3391 61.7992 57.484 61.8881 57.7878C62.2783 59.1217 62.0799 60.713 62.2565 62.0965C62.724 65.7571 64.6952 74.6634 62.9698 77.8167C62.614 78.4671 62.1828 78.6144 61.5027 78.8059C58.2319 78.0822 56.1664 75.8722 54.5816 73.0244C54.4447 75.6469 53.6133 82.6169 50.0535 77.7078C49.6789 77.1912 49.21 76.2897 48.9523 75.707C47.131 71.5896 45.5957 66.9792 45.7342 62.4335C45.7443 62.0998 46.1757 61.8452 46.4205 61.6817C46.7333 61.6898 46.8023 61.7241 47.1056 61.8189C47.6626 62.2521 47.8334 64.5476 47.9559 65.3131C48.2128 66.9753 48.5755 68.6193 49.0418 70.2348C49.775 72.6956 50.8632 74.5689 51.7846 76.9019C52.4362 74.3057 52.6 72.5024 52.54 69.8131C52.5182 68.8355 52.5532 67.4013 53.28 66.6874C54.5584 66.3716 55.0604 68.9048 55.4102 69.7934C56.7781 73.2676 57.9718 75.1455 61.3892 76.7365C62.2108 70.1932 59.8381 64.2315 60.0458 57.8005C60.0569 57.4572 60.584 57.2088 60.876 57.0674Z" fill="#8B8B8B"/>
<path d="M90.9792 44.9213C91.444 44.9691 92.0447 45.0535 92.1243 45.618C92.3832 47.4537 92.3911 49.3782 92.6828 51.2064C93.2222 54.5861 93.9829 57.9258 94.2695 61.3472C94.4482 63.4657 94.7199 63.8437 93.5567 65.7271C91.1652 66.6401 89.7538 65.0135 88.2153 63.4134C88.5153 65.5013 89.4864 69.8716 86.9396 71.1304C86.5265 71.3346 85.7736 71.2147 85.373 70.9862C81.8188 68.9583 79.534 65.1314 78.2584 61.3353C77.9924 60.4822 77.4245 59.1926 77.782 58.318C78.0417 57.6831 78.8655 57.9011 79.3264 58.1668C80.9584 62.8088 82.0127 66.4446 86.3957 69.1384C86.9575 65.9682 85.8749 62.2208 85.3236 59.0683C84.7152 58.2578 86.1483 56.7354 86.6709 57.4329C88.8368 60.3234 89.0801 62.3171 92.4201 64.0843C92.4897 61.7165 91.8894 59.5625 91.5941 57.2076C91.1338 53.5373 90.0126 49.6486 90.2683 45.9383C90.3093 45.3432 90.5572 45.2307 90.9792 44.9213Z" fill="#8B8B8B"/>
<path d="M114.128 64.2806C114.626 64.3473 114.836 64.3769 115.13 64.7783C115.073 65.0042 115.058 65.1822 114.821 65.3178C113.317 66.1787 112.242 66.5076 110.933 67.7749C109.375 69.2841 107.802 71.7809 107.094 73.8117C106.56 75.3167 106.358 76.9198 106.502 78.5103C106.692 80.6412 108.315 84.9425 107.796 86.2701C106.658 86.314 106.344 84.4629 106.07 83.5592C104.731 79.1417 104.801 74.4552 107.171 70.3876C108.703 67.7565 111.097 65.131 114.128 64.2806Z" fill="#8B8B8B"/>
<path d="M35.4102 44.5984C39.5002 46.3923 37.9335 63.8249 25.9065 61.5705C25.5406 61.3474 25.1 61.0715 25.2152 60.62C25.8388 60.1712 28.1397 60.5261 29.1707 60.3319C34.0655 59.4104 37.1856 52.9466 35.8183 48.3551C35.5198 47.3527 35.155 46.375 34.9257 45.3553C34.8569 45.0551 35.2183 44.7947 35.4102 44.5984Z" fill="#8B8B8B"/>
<path d="M54.1634 94.7345C54.5705 94.7732 55.0117 94.8528 55.4153 94.9282C59.816 95.736 63.7006 98.2982 66.182 102.03C66.84 102.999 68.6597 105.64 67.2679 106.456C66.7202 106.065 66.5231 105.633 66.252 105.021C64.2603 100.526 60.0085 97.0187 55.15 96.165C54.5356 96.057 53.7262 95.842 53.5637 95.2165C53.7897 94.8441 53.7274 94.9516 54.1634 94.7345Z" fill="#8B8B8B"/>
<path d="M102.892 32.1799C103.597 32.7376 103.265 33.4608 102.957 34.2213C101.097 38.8103 101.831 40.4695 102.827 44.922C102.614 45.3779 102.644 45.2607 102.179 45.5833C99.6344 43.1665 99.9071 34.3976 102.892 32.1799Z" fill="#8B8B8B"/>
</svg>
