<svg width="41" height="36" viewBox="0 0 41 36" fill="none" xmlns="http://www.w3.org/2000/svg">
<g clip-path="url(#clip0_253_2987)">
<path d="M26.3565 5.42019C25.5963 4.25248 24.3632 2.35653 23.1479 1.69315C21.5274 0.808562 18.9987 0.0888338 17.3625 1.27213C15.9037 2.32722 15.2549 3.85173 15.3624 5.62055C15.3581 8.11994 16.2178 10.4095 17.2113 12.6762C17.6344 13.6416 18.3365 14.5482 18.8742 15.4542C20.2135 17.2259 22.3753 19.5733 24.5561 20.1869C25.4669 20.4431 28.5349 18.673 29.4397 18.2171C31.5644 17.1465 33.706 16.0061 35.6762 14.679C35.8399 14.5076 36.5578 13.9907 36.7863 13.7868C38.5697 12.1945 39.5439 10.8877 39.7803 8.49763C39.7387 8.36671 39.755 7.1458 39.7735 6.95979C39.7587 6.85537 39.7456 6.75071 39.7343 6.64584C39.677 6.31049 39.6136 5.76722 39.4865 5.45858C38.9608 4.18178 38.1952 3.19411 37.105 2.35581C35.6255 1.2181 33.9246 1.36489 32.1781 1.54981C31.6356 1.60725 31.0609 1.86993 30.5655 2.08409C29.3288 2.60318 28.2665 3.38267 27.3173 4.32166C26.9374 4.69752 26.584 4.91665 26.3565 5.42019ZM27.781 7.94465C27.8233 7.84115 27.9781 7.60663 28.0438 7.50123C30.3325 4.64851 35.6603 2.42406 36.8174 7.55421C36.8816 7.83898 36.8091 8.40074 36.7511 8.69306L36.6679 8.90133C35.9252 10.7139 34.4292 11.7463 32.8292 12.7665C32.4804 12.9889 32.0749 13.1107 31.7123 13.296C31.2717 13.5526 30.5943 13.9168 30.1236 14.1111C29.0628 14.874 25.5719 16.2698 24.883 17.1892C24.7534 17.0458 24.6025 16.9165 24.4501 16.7909C21.8253 14.627 19.9401 11.7047 18.8177 8.50916C18.6855 8.14185 18.6554 7.71111 18.5472 7.34514C18.1285 5.92848 17.5664 3.97105 19.454 3.35628C19.6159 3.30356 19.9318 3.2798 20.0886 3.37089L20.0996 3.42784L19.9271 3.4778C20.4515 3.46995 20.4302 3.44536 20.9354 3.55849C21.1719 3.65081 21.47 3.75976 21.676 3.90373C22.8445 4.72055 24.1428 6.3069 24.7076 7.58982C24.8722 7.96019 25.0045 8.3441 25.103 8.73725C25.3081 9.54982 25.3505 10.4012 26.1032 10.9173C26.2746 11.0349 26.4963 11.2459 26.7096 11.1984L26.7198 11.0257C26.7302 10.8309 27.0656 10.0428 27.1436 9.78551C27.2951 9.28576 27.4955 8.35978 27.781 7.94465ZM19.7843 14.168C19.4893 13.7282 19.2175 13.1592 18.9717 12.6885C18.3291 11.4576 17.7559 10.2467 17.3601 8.91279C17.2976 8.70203 17.1568 8.29945 17.1774 8.0895L17.2056 8.04872C17.8181 9.87118 18.4398 11.4723 19.3623 13.1668C19.4558 13.3385 19.8383 14.0297 19.7843 14.168ZM31.1057 3.49729C31.7547 3.12964 32.8298 2.96337 33.5734 2.95632C34.0149 2.94565 34.7896 2.9373 35.1828 3.16111C35.1318 3.19197 34.046 3.09358 33.8636 3.09417C32.6922 3.11047 32.331 3.35705 31.3508 3.57171C31.4736 3.41237 31.6798 3.46215 31.806 3.32545C31.7381 3.27339 31.3145 3.51658 31.1057 3.49729ZM23.9237 3.93266C24.3107 4.36874 25.0515 5.42634 25.2681 5.96058C25.0065 5.68421 24.1787 4.53738 23.8966 4.15938L23.9574 4.08457L23.9237 3.93266ZM28.8129 4.83551L28.9496 4.90209C28.2187 5.52355 27.568 6.09814 27.0963 6.94421C27.0758 6.44334 28.3903 5.1613 28.8129 4.83551ZM37.8237 5.40103L37.7326 5.55231C37.5161 4.91264 36.8565 4.10591 36.3025 3.72035C36.1882 3.64079 35.9604 3.5478 35.8127 3.45928L35.8288 3.40978C36.0511 3.41877 36.1413 3.52305 36.3215 3.62803C37.0249 4.03778 37.4695 4.68578 37.8237 5.40103Z" fill="#CBCBCB"/>
<path d="M16.1298 20.8293C15.7608 20.7637 15.4297 20.6835 15.0566 20.6336C13.9094 20.4801 12.6676 20.7528 11.719 21.4238C11.2776 21.736 10.6868 22.1782 10.3151 22.5668C10.2171 22.6693 9.88368 23.2114 9.7954 23.3524C9.64862 23.2516 9.20052 22.4702 9.05656 22.2521C7.33517 19.6447 3.9396 17.5648 1.61437 20.8038C1.04519 21.5967 0.702763 23.366 0.615224 24.3849C0.535771 24.333 0.396203 24.2183 0.322726 24.2299C0.260499 24.5108 0.804014 26.2966 0.928116 26.6537L1.01144 26.9061C1.91179 29.7453 3.50718 32.7283 6.09035 34.4023C6.69297 34.7928 7.75103 35.3739 8.49374 35.0913C9.2676 34.7968 10.1155 34.4025 10.8812 34.0672C12.7863 32.9674 14.8411 32.0281 16.6699 30.8146C17.7721 30.0832 19.0279 28.9157 19.3933 27.6177C19.6605 26.6686 19.743 25.2659 19.4661 24.3145C19.1465 23.2165 18.2227 21.8327 17.2214 21.2521C16.8316 21.0938 16.532 20.9668 16.1298 20.8293ZM8.86552 28.5419C8.92068 28.3444 8.87954 28.3783 9.02987 28.2841L9.07442 28.3008C9.08166 28.4661 9.05765 28.4334 9.13826 28.5585C9.30486 28.6 9.47087 28.6439 9.63621 28.6902C10.2745 26.1297 11.8642 22.8441 15.0306 23.1398C15.5761 23.1665 16.2344 23.6766 16.5305 24.1504C18.785 27.7591 12.1867 29.6884 10.0756 31.1761C9.85724 31.33 9.60974 31.4127 9.42127 31.5595C9.02288 31.8699 8.6389 32.1757 8.2397 32.4732C7.26823 31.7108 6.73916 30.6738 6.01065 29.7382C4.70847 28.0655 3.79968 26.5169 3.39995 24.4107C3.04206 22.5238 4.16249 20.7335 5.88729 22.6368C7.22042 24.1079 8.13595 25.7215 8.60258 27.6568C8.66833 27.9233 8.83732 28.2752 8.86552 28.5419ZM14.9584 21.8314C15.6927 21.8438 16.1864 22.0203 16.7484 22.4801C17.0389 22.6385 17.7859 23.5282 17.9 23.837L17.865 23.8612C17.7689 23.7779 17.7791 23.732 17.7147 23.6402C17.4138 23.2115 17.0175 22.8403 16.6105 22.5172C16.0652 22.1518 15.6456 22.1386 15.0204 21.9864C13.5474 21.8601 12.688 22.284 11.485 23.047C11.54 22.9841 11.5976 22.9236 11.6577 22.8657C12.6406 21.9279 13.695 21.806 14.9584 21.8314ZM2.73972 21.4071L2.66659 21.432C2.65358 21.3153 2.73093 21.2489 2.79597 21.1581C3.18901 20.609 3.80073 20.4279 4.45956 20.4701C4.55905 20.5164 4.56749 20.5003 4.61601 20.5845C4.33827 20.767 3.44812 20.3195 2.73972 21.4071ZM11.0153 23.4334C10.893 23.5886 10.8344 23.6742 10.6567 23.7731C10.763 23.5914 10.7931 23.4778 11.0153 23.4334ZM18.4062 24.8196C18.4543 24.9756 18.4913 25.0583 18.4695 25.2186L18.4381 25.2697C18.3511 25.1929 18.3403 25.088 18.3174 24.9711C18.287 24.8234 18.2455 24.6769 18.2696 24.5288C18.3379 24.5754 18.3763 24.7324 18.4062 24.8196ZM8.13529 34.1624L7.97877 34.2026C7.85115 34.139 7.19809 33.6176 7.08035 33.5103C7.43877 33.6716 7.79065 33.9447 8.13529 34.1624ZM9.29101 26.4243C9.28588 26.1258 9.22095 26.0738 9.24728 25.692L9.27811 25.6909L9.25997 25.7257L9.27495 25.6732C9.32508 25.8022 9.33426 25.8688 9.35788 26.0057C9.40967 26.3672 9.39845 26.7154 9.37356 27.0779C9.32831 26.8738 9.27284 26.6338 9.29101 26.4243ZM6.52963 21.3632C6.6486 21.4656 6.89206 21.6816 6.96332 21.8175L6.92036 21.868C6.78395 21.7345 6.60522 21.5697 6.48758 21.4246L6.52963 21.3632Z" fill="#CBCBCB"/>
</g>
<defs>
<clipPath id="clip0_253_2987">
<rect width="40.9219" height="36" fill="white" transform="matrix(-1 0 0 1 40.9219 0)"/>
</clipPath>
</defs>
</svg>
