<svg width="85" height="85" viewBox="0 0 85 85" fill="none" xmlns="http://www.w3.org/2000/svg">
<g clip-path="url(#clip0_253_3224)">
<path d="M45.7169 22.946C47.8677 22.8679 52.0763 23.587 54.0395 24.6005C55.0807 25.138 56.2905 25.7619 57.2604 26.452C57.5735 26.6748 58.247 27.4257 58.5579 27.6434C61.3335 29.5867 62.6357 31.5722 63.7577 34.7362C64.4795 36.7718 64.336 40.3198 64.0842 42.5055C64.0508 42.7951 63.9842 43.6102 63.8688 43.8527L63.6659 43.518L63.5732 43.5222C63.2861 44.0906 63.2856 45.3887 63.0256 46.1725C62.0887 48.9977 60.535 51.4599 58.7939 53.848C57.9614 54.99 53.8934 58.59 53.6156 59.4543C53.2838 60.4873 53.428 61.7472 53.2806 62.8337C53.0978 64.1819 52.5329 65.4657 52.3522 66.8075C52.1311 68.4496 52.5683 70.8161 52.2081 72.2439C51.9137 73.4106 51.201 74.4949 50.7312 75.5994C50.2888 76.64 49.9808 77.7652 49.2644 78.6638C48.3741 79.7804 46.9265 80.3477 45.806 81.1877C44.8141 81.9312 44.0785 82.9384 43.0112 83.6122C42.5735 83.8886 42.2658 83.9732 41.7584 84.0338C39.8351 84.4016 38.3295 83.7931 36.8029 82.6205C36.2115 82.1661 35.6775 81.5708 35.0676 81.1485C34.2938 80.6124 33.3749 80.2549 32.6333 79.663C31.9747 79.1448 31.2409 78.3753 31.0036 77.5634C30.3068 75.1796 30.6934 72.422 30.664 69.9687C30.6501 68.8132 30.4169 67.6827 30.4609 66.4859C30.551 64.0353 30.9421 61.4102 30.7985 58.975C30.7172 57.5963 29.0755 56.7638 28.029 55.9193C26.2661 54.4967 25.393 53.5882 24.5576 51.4453C24.1878 50.4967 23.9669 50.1074 23.8544 49.0386C23.6182 46.7933 23.5607 44.3937 23.8634 42.1546C23.933 41.64 24.2205 40.8371 24.3491 40.271C24.4978 39.6159 24.703 38.4249 24.9561 37.8521C25.8399 35.8509 27.3684 33.2835 28.6747 31.5558C30.8064 28.7365 35.0082 26.1134 38.2546 24.713C40.0803 23.9255 43.6964 23.1896 45.7169 22.946ZM41.4831 56.8757C43.8971 56.9149 46.1398 57.2016 48.5341 57.4195C48.8027 57.444 49.0538 57.4558 49.3229 57.4942C49.776 56.5472 52.7715 54.1157 53.6614 53.1996C56.9605 49.8105 59.1004 45.4627 59.7733 40.781C59.9427 39.5503 60.0063 39.0785 59.9087 37.8664C59.6077 34.1231 56.9444 31.4037 54.0861 29.2345C51.9512 27.6143 48.396 26.8804 45.739 27.0953C41.0376 27.4233 35.0595 29.8045 31.9601 33.3628C28.5213 37.392 26.957 42.6045 27.3319 47.8537C27.5569 51.0043 29.8212 55.2664 33.1076 55.9878C33.8097 56.1419 33.5382 57.6945 35.257 57.4728C37.2428 57.2167 39.4827 56.8341 41.4831 56.8757ZM46.9242 65.9091C47.3618 65.8763 48.4358 65.851 48.7714 65.7008C48.8375 65.5111 48.8327 65.4623 48.8447 65.2588C49.0893 65.0785 49.2346 65.0021 49.2996 64.7109L49.3114 64.6599C49.4335 64.1134 49.4498 62.3826 49.5139 61.6675C47.6308 60.6719 46.6358 60.6937 44.5426 60.4956C41.5036 60.1847 38.448 60.067 35.394 60.1432C34.8911 60.1565 33.7886 60.1179 33.4241 60.3687C33.2127 60.6545 33.2609 61.4853 33.3069 61.8206C33.4162 62.6191 33.0856 65.4905 33.4416 66.0469C34.6924 66.1998 36.0635 66.0457 37.3293 65.9951C40.5198 65.8673 43.7383 66.0022 46.9242 65.9091ZM48.6593 69.2689C47.6283 69.1222 47.0335 69.151 45.9952 69.1893C43.5343 69.2205 41.0444 69.2232 38.5828 69.2899C37.1561 69.3286 34.5171 69.1899 33.2248 69.4005C32.8566 69.8079 32.9976 72.2622 33.3402 72.7367C33.8847 73.1577 34.8339 72.9795 35.5633 73.0218C38.4953 73.0511 41.4276 73.017 44.3582 72.9195C45.566 72.8885 47.2943 72.9536 48.4456 72.7311C48.7772 72.3356 48.5108 70.067 48.6593 69.2689ZM32.8008 76.5161C33.6559 76.8824 34.4895 77.7452 34.8263 77.8098C37.1774 78.2611 42.0109 78.2414 44.23 77.617C45.2561 77.117 44.9309 76.9299 46.3605 76.4826C42.4018 75.7762 38.2749 76.2687 34.3358 76.0679C33.76 76.1444 33.3412 76.3126 32.8008 76.5161Z" fill="black"/>
<path d="M44.132 13.6857C44.1698 12.4387 44.2918 11.0939 44.4222 9.85563C44.5712 8.44101 44.8474 1.09871 46.3613 0.771729C46.5711 0.860901 46.8196 0.97893 46.923 1.19538C47.554 2.51612 47.4963 13.5157 46.9158 14.7951C46.8157 15.0156 46.6688 15.0864 46.4535 15.1637C45.9118 15.2914 45.6212 15.0372 45.1333 15.3649C45.0493 15.4213 44.9465 15.414 44.8464 15.4071C44.2759 14.5921 44.7886 14.4619 44.132 13.6857Z" fill="black"/>
<path d="M20.5117 8.48124C21.2809 8.44239 22.5473 8.91661 23.157 9.42653C26.1077 11.894 29.6938 14.7531 31.1261 18.427C31.2618 18.7751 30.7899 19.1768 30.9362 19.7831C30.5461 19.9254 28.9656 19.428 28.6257 19.1415C27.8099 18.5662 27.3916 17.2925 26.7265 16.6421C24.8994 14.8552 23.5974 12.6806 21.812 10.8915C21.3639 10.4424 20.9147 10.0494 20.4218 9.66061C20.2557 9.52954 20.2293 9.33622 20.2217 9.13899C20.2284 8.76388 20.2693 8.72852 20.5117 8.48124Z" fill="black"/>
<path d="M61.2898 2.96106C61.4949 2.99476 61.5251 2.99769 61.6753 3.13877C62.0554 4.53566 61.7303 5.06844 61.3985 6.3971C61.2583 6.95865 61.2368 7.75734 61.0493 8.31848C60.4465 10.1233 59.2741 13.0757 59.131 14.8853C58.4114 15.1413 58.1709 15.13 57.4331 15.0954C56.5342 14.827 56.5422 14.4669 56.7268 13.5694C57.3996 10.2978 58.7108 7.09446 60.1093 4.07189C60.2228 3.82681 61.0567 3.12164 61.2898 2.96106Z" fill="black"/>
<path d="M73.4416 24.9411C72.8789 24.7018 72.4319 24.8265 72.087 24.6401L72.0868 24.4145C72.1824 24.216 73.3737 23.1426 73.5937 23.0367L73.6391 23.0154C74.0332 22.8254 75.7121 22.5785 75.7671 22.497C76.5039 21.4044 77.0014 22.0208 77.9867 21.6791C78.0416 21.66 78.2365 21.254 78.3278 21.1294C79.002 20.7328 80.4372 20.6548 81.2418 20.5916C81.5325 20.6043 83.0095 20.7137 83.1963 20.6452C83.3573 20.6672 84.6763 21.3258 84.7867 21.4335C84.2546 21.9141 84.4605 21.3952 83.9591 22.1606C81.7641 22.9579 79.2414 23.3865 76.9872 24.0547C75.8108 24.4034 74.6391 24.4698 73.4416 24.9411Z" fill="black"/>
<path d="M71.6933 45.8459C72.0445 45.8276 72.4006 45.8311 72.7479 45.886C75.0905 46.2569 77.4933 46.3407 79.6467 47.4329C81.0301 48.1345 81.097 48.1329 80.8374 49.6465C80.4141 49.661 79.9906 49.6724 79.5671 49.6808C78.5465 49.5153 77.462 49.223 76.4525 49.0049C75.4431 48.7867 70.0104 47.9003 70.1745 46.4346C70.4838 46.0612 71.2071 45.959 71.6933 45.8459Z" fill="black"/>
<path d="M69.1822 60.7887C69.8683 60.7364 70.4765 60.7315 71.1375 60.9531C72.3437 61.3574 74.918 62.2908 75.3094 63.6189C75.2134 64.2981 74.6376 64.2713 74.0746 64.3235C73.2171 64.32 68.3261 61.8629 68.1121 61.3201C68.3835 61.0998 68.6812 61.1252 69.1822 60.7887Z" fill="black"/>
<path d="M7.20664 59.2082C8.30503 58.6011 11.1941 56.3782 12.402 56.7098C13.1368 56.8905 12.935 57.1248 13.1973 57.8368C12.2737 58.5399 7.61886 60.7529 6.22965 60.8586C6.11704 60.8672 6.05557 60.7289 5.98972 60.6324L6.04274 60.4528C6.30192 60.2065 6.54476 60.1549 6.88639 60.0408C7.02371 59.7593 7.10527 59.5043 7.20664 59.2082Z" fill="black" fill-opacity="0.988235"/>
<path d="M12.4019 56.7097C12.8248 56.656 13.207 56.5323 13.5854 56.6375C13.9334 56.9319 14.0152 57.3483 13.808 57.7553C13.5514 57.7855 13.3751 57.7404 13.1973 57.8367C12.9349 57.1247 13.1368 56.8904 12.4019 56.7097Z" fill="black" fill-opacity="0.886275"/>
<path d="M81.2417 20.5915C82.1108 20.389 82.8154 19.768 83.4511 20.1631L83.4743 20.3424C83.3498 20.4474 83.222 20.5139 83.1962 20.6452C83.0095 20.7137 81.5325 20.6043 81.2417 20.5915Z" fill="black" fill-opacity="0.882353"/>
<path d="M44.8464 15.4072C44.9465 15.4141 45.0493 15.4214 45.1333 15.365C45.6212 15.0373 45.9118 15.2915 46.4535 15.1638L46.2628 15.4472C46.3444 15.5853 46.3426 15.5784 46.4621 15.6698C46.0251 16.0337 45.2043 15.8508 44.8464 15.4072Z" fill="black" fill-opacity="0.878431"/>
<path d="M0.890412 22.5078C1.04838 22.3015 1.11881 22.1631 1.37599 22.1086C1.66057 22.1421 2.10206 22.2571 2.3667 22.3891C7.10081 24.7511 12.1634 26.5462 16.743 29.1701C16.945 29.2858 17.2054 30.5889 17.1172 30.8035C16.4992 32.3082 12.6812 30.5139 11.8834 30.1755C9.69265 29.2593 7.57676 28.1736 5.55489 26.9283C4.2823 26.1398 3.05932 25.2105 1.77888 24.4274C1.43872 24.2194 0.853814 23.9357 0.890636 23.4857C0.928637 23.1245 0.909362 22.8717 0.890412 22.5078Z" fill="black"/>
<path d="M0 22.3096C0.342996 22.4092 0.536247 22.4718 0.890417 22.5078C0.909367 22.8716 0.928642 23.1245 0.890641 23.4856C0.553189 23.4173 0.294762 23.3215 0 23.4877V22.3096Z" fill="black" fill-opacity="0.0352941"/>
</g>
<defs>
<clipPath id="clip0_253_3224">
<rect width="85" height="85" fill="white"/>
</clipPath>
</defs>
</svg>
