<svg width="43" height="32" viewBox="0 0 43 32" fill="none" xmlns="http://www.w3.org/2000/svg">
<g clip-path="url(#clip0_253_3164)">
<path d="M0 0H21.2038H22.8665H43V32H0V0Z" fill="#B8B8B8"/>
<path d="M0 0H21.2038C20.7801 0.796322 20.3532 1.56158 19.863 2.32339C19.6193 2.70216 19.3074 2.99917 19.0777 3.33281C18.0529 3.14575 16.8279 2.61922 15.8529 2.22721C15.5733 2.11477 15.0765 1.58778 14.8529 1.52662C14.0313 1.30186 14.0427 2.43354 14.398 2.86882C14.9995 3.60566 15.9145 3.60147 16.7214 3.83878C16.5588 4.16938 16.3717 4.471 16.0687 4.69206C15.5224 5.09069 14.5894 5.35509 13.9505 5.63191C13.0755 6.01097 11.7178 6.75434 10.9491 7.31547C10.2209 7.84697 9.57297 8.51625 8.99397 9.20397C8.341 9.97953 7.73016 10.7854 7.27525 11.6961C6.45469 13.3387 5.99241 15.5596 5.97944 17.3903C5.96972 18.7603 6.19219 20.272 6.63434 21.5693C6.81809 22.1084 7.00875 22.6457 7.26256 23.1564C8.279 25.2015 10.0911 27.1908 12.1499 28.2021C13.1293 28.6831 14.1356 29.093 15.1919 29.3759C15.9354 29.5751 16.7131 29.6665 17.4735 29.779C19.7306 30.1129 22.0385 30.2863 24.3139 30.0068C24.8488 29.9411 25.3772 29.829 25.9059 29.7259C26.644 29.582 27.3482 29.4384 28.0612 29.1946C30.7555 28.2733 32.5972 27.3678 34.4188 25.1092C35.0419 24.3364 35.5781 23.5265 36.0159 22.6338C37.2288 20.1614 37.5166 17.2423 37.0759 14.5446C36.9756 13.9311 36.8537 13.3227 36.6506 12.7336C35.6594 9.85469 33.6566 7.66247 30.9254 6.33741C30.6358 6.19691 28.1237 5.09016 28.0698 4.92669C28.0344 4.81944 28.0832 4.65163 28.1086 4.54406C28.6639 4.26497 30.3464 3.90516 29.9061 2.89967C29.626 2.26003 28.2274 2.57573 27.6515 2.64216C26.5924 2.76433 25.4553 2.82527 24.3955 2.99892C24.0399 3.05789 23.6887 3.1415 23.3446 3.24916C23.2274 3.00152 23.1326 2.6971 23.0523 2.433C22.775 1.52071 22.6326 0.931334 22.8665 0H43V32H0V0Z" fill="#F9F9F9"/>
<path d="M26.2149 6.18029C26.5794 6.18441 27.0228 6.36444 27.2469 6.36126C28.279 6.34669 28.5862 6.42251 29.523 6.78007C33.664 8.36057 36 12.1697 36.1728 16.506C36.2978 19.6435 35.4047 22.4175 33.2906 24.7618L33.2772 24.7771C31.5753 26.6674 29.4815 27.6799 27.0676 28.3537C25.6825 28.7833 24.2835 29.0264 22.8277 29.073C18.63 29.2075 13.7798 28.6874 10.5405 25.7456C8.45586 23.8588 7.20692 21.2206 7.06892 18.4123C6.9277 15.434 8.01036 12.0472 10.0072 9.80773C11.4715 8.16563 13.9671 6.30516 16.2296 6.20026C16.4666 6.19298 16.8323 6.18594 17.0432 6.28554C17.0757 6.33469 17.0886 6.32669 17.06 6.37444C16.8841 6.66807 16.5685 6.89388 16.3391 7.14019C15.9207 7.5896 15.3576 8.36348 15.2721 8.98304C15.2529 9.12245 15.306 9.31426 15.4039 9.40988C15.6648 9.66498 15.8794 9.69001 16.2046 9.7121C16.409 9.60554 17.0353 8.96651 17.1562 9.08894C17.5267 9.46423 17.6645 9.97438 18.2056 10.1816C19.1504 10.5434 19.9704 10.3016 20.7158 9.65623C21.476 9.03841 21.585 8.74954 21.9034 7.85557C22.0469 7.84357 22.1881 7.82166 22.3306 7.80113C22.7877 8.93688 23.4987 10.0321 24.7821 10.36C25.4954 10.5317 25.867 10.2846 26.4475 9.98132C27.1065 9.63704 27.4167 9.6232 27.6041 8.76482C27.9155 7.33801 26.8893 7.1676 26.2149 6.18029Z" fill="#F9F9F9"/>
<path d="M25.3423 20.505C25.4715 20.5006 25.6793 20.4763 25.7556 20.6035C25.8174 20.7062 25.8375 20.877 25.7939 20.9973C25.4637 21.9082 24.5975 22.73 23.8288 23.2898C23.0252 23.7697 21.4652 23.9576 20.5535 23.7193C19.4672 23.4354 18.9174 23.1241 18.3314 22.1723C18.1961 21.9484 17.7966 20.9348 18.1673 20.8115C18.6365 20.6555 19.1646 21.5386 19.5324 21.8152C20.1387 22.2711 20.7459 22.6462 21.543 22.5806C22.5865 22.5274 23.4595 22.1529 24.2443 21.4659C24.5159 21.2282 25.0154 20.6396 25.3132 20.5167L25.3423 20.505Z" fill="#B8B8B8"/>
<path d="M15.8039 13.6056C15.838 13.6003 15.8723 13.5969 15.9067 13.5953C16.264 13.5786 16.6014 13.6274 16.8692 13.8873C17.3138 14.3414 17.4389 15.0486 17.4727 15.6567C17.5016 16.1781 17.3955 16.8518 16.7253 16.8388C15.5154 16.8152 16.3395 16.1118 16.4046 15.485C16.4283 15.2563 16.2748 14.9259 16.1214 14.7578C16.0334 14.6559 15.9302 14.6565 15.8086 14.6515C15.229 14.8554 15.0783 15.7442 15.0557 16.276C15.0188 17.1403 13.7189 16.9023 13.6598 16.1664C13.604 15.4714 13.8727 14.9394 14.2905 14.4066C14.7291 13.8474 15.1253 13.6841 15.8039 13.6056Z" fill="#B8B8B8"/>
<path d="M27.0306 13.5106C28.3574 13.3207 29.0082 14.2643 28.9126 15.4504C28.8463 16.2739 28.3117 16.3495 27.6274 16.3043C27.6212 15.79 27.6583 15.2012 27.4689 14.7294C27.1282 14.4792 26.937 14.4221 26.6156 14.7098C26.2745 15.252 26.4434 15.8423 26.4369 16.4877C25.8337 16.8812 25.0911 16.8194 24.9411 16.003C24.8243 15.3672 25.2362 14.7481 25.5787 14.2481C25.909 13.7657 26.4782 13.592 27.0306 13.5106Z" fill="#B8B8B8"/>
<path d="M27.3661 3.66973C27.5602 3.64135 28.0963 3.63457 28.2727 3.68751L28.2842 3.74345C28.0921 4.07423 26.9353 4.47026 26.5836 4.75129C26.0391 5.18639 26.295 6.17648 25.512 5.60795C24.942 5.1941 24.3668 5.0101 23.6784 4.92289C23.8011 5.34695 24.0422 5.5642 24.1596 5.8626C24.4695 6.65035 24.5813 6.7406 25.2905 7.16214C25.7684 7.46479 26.3577 8.13992 26.4305 8.71626C26.5515 9.67545 26.2398 9.66142 25.5735 9.30151C24.6075 8.77967 24.3014 8.20179 23.5901 7.47767C23.1032 6.98182 21.668 6.8366 21.0152 6.88139C20.8608 7.04279 20.7352 7.21295 20.5995 7.38992C20.4404 7.60839 20.2766 7.82339 20.1083 8.03479C19.8481 8.35626 19.0319 9.22051 18.6072 9.25292C18.4308 9.26639 18.2646 9.08951 18.1428 8.98067C18.0069 8.85914 17.7973 8.67407 17.8152 8.47182C17.8464 8.11914 19.5515 6.47148 19.476 5.89148C19.417 5.43889 18.1544 5.9457 17.7014 5.60373C17.5334 5.47692 17.4663 5.29885 17.4386 5.09642C17.404 4.84329 17.4012 4.48167 17.5662 4.27407C17.6923 4.11551 18.0222 4.1516 18.2091 4.16689C18.8082 4.21589 19.405 4.40251 19.9943 4.52076C20.8337 4.68917 22.5721 4.82101 23.4074 4.72173C23.6169 4.69682 23.5316 4.53745 23.6542 4.39473C23.7994 4.22592 25.646 3.82885 25.9719 3.78414C26.4319 3.72098 26.9028 3.70139 27.3661 3.66973Z" fill="#F9F9F9"/>
<path d="M21.5691 1.45583C21.5858 1.45922 21.5888 1.45868 21.6057 1.4687C21.7158 1.53406 22.6197 3.20328 22.6989 3.42581C22.2671 3.53746 21.8594 3.52324 21.4161 3.52618C21.1406 3.52384 20.5906 3.52818 20.354 3.43431C20.1284 3.17312 21.3104 1.67764 21.5691 1.45583Z" fill="#F9F9F9"/>
<path d="M17.483 7.21064L17.5143 7.24826C17.588 7.71701 16.6629 8.47382 16.3214 8.72439C16.3007 8.70473 16.3054 8.69814 16.2945 8.66292C16.4074 8.35698 17.1924 7.44829 17.483 7.21064Z" fill="#F9F9F9"/>
</g>
<defs>
<clipPath id="clip0_253_3164">
<rect width="43" height="32" fill="white"/>
</clipPath>
</defs>
</svg>
